<?xml version="1.0" encoding="UTF-8" standalone="no"?>
<!-- Created with Inkscape (http://www.inkscape.org/) -->

<svg
   xmlns:dc="http://purl.org/dc/elements/1.1/"
   xmlns:cc="http://creativecommons.org/ns#"
   xmlns:rdf="http://www.w3.org/1999/02/22-rdf-syntax-ns#"
   xmlns:svg="http://www.w3.org/2000/svg"
   xmlns="http://www.w3.org/2000/svg"
   xmlns:sodipodi="http://sodipodi.sourceforge.net/DTD/sodipodi-0.dtd"
   xmlns:inkscape="http://www.inkscape.org/namespaces/inkscape"
   id="svg3775"
   version="1.1"
   inkscape:version="0.91 r13725"
   xml:space="preserve"
   width="720"
   height="360"
   viewBox="0 0 720 360"
   sodipodi:docname="COMPUSHIFT_LOGO_FINAL.svg"><metadata
     id="metadata3781"><rdf:RDF><cc:Work
         rdf:about=""><dc:format>image/svg+xml</dc:format><dc:type
           rdf:resource="http://purl.org/dc/dcmitype/StillImage" /><dc:title></dc:title></cc:Work></rdf:RDF></metadata><defs
     id="defs3779"><clipPath
       clipPathUnits="userSpaceOnUse"
       id="clipPath3789"><path
         d="M 0,288 576,288 576,0 0,0 0,288 Z"
         id="path3791"
         inkscape:connector-curvature="0" /></clipPath><linearGradient
       x1="0"
       y1="0"
       x2="1"
       y2="0"
       gradientUnits="userSpaceOnUse"
       gradientTransform="matrix(195.93463,47.288879,9.0309057,-177.79048,86.873535,94.135742)"
       spreadMethod="pad"
       id="linearGradient4005"><stop
         style="stop-opacity:1;stop-color:#ffffff"
         offset="0"
         id="stop4007" /><stop
         style="stop-opacity:1;stop-color:#ee2722"
         offset="1"
         id="stop4009" /></linearGradient></defs><sodipodi:namedview
     pagecolor="#ffffff"
     bordercolor="#666666"
     borderopacity="1"
     objecttolerance="10"
     gridtolerance="10"
     guidetolerance="10"
     inkscape:pageopacity="0"
     inkscape:pageshadow="2"
     inkscape:window-width="640"
     inkscape:window-height="480"
     id="namedview3777"
     showgrid="false"
     inkscape:zoom="0.55694444"
     inkscape:cx="360"
     inkscape:cy="180"
     inkscape:window-x="151"
     inkscape:window-y="0"
     inkscape:window-maximized="0"
     inkscape:current-layer="g3783" /><g
     id="g3783"
     inkscape:groupmode="layer"
     inkscape:label="COMPUSHIFT_LOGO_FINAL"
     transform="matrix(1.25,0,0,-1.25,0,360)"><g
       id="g3785"><g
         id="g3787"
         clip-path="url(#clipPath3789)"><g
           id="g3793"
           transform="translate(347.291,175.8682)"><path
             d="m 0,0 -18.463,0 0.926,4.817 c 0.433,2.25 0.475,3.682 0.12,4.298 -0.355,0.614 -1.082,0.925 -2.187,0.925 -1.198,0 -2.18,-0.417 -2.956,-1.246 -0.773,-0.833 -1.322,-2.092 -1.647,-3.779 -0.417,-2.169 -0.384,-3.804 0.094,-4.904 0.448,-1.098 2.064,-2.424 4.852,-3.973 7.991,-4.468 12.857,-8.133 14.602,-10.999 1.749,-2.865 2.012,-7.482 0.784,-13.858 -0.89,-4.63 -2.184,-8.042 -3.888,-10.241 -1.692,-2.194 -4.511,-4.035 -8.448,-5.519 -3.937,-1.487 -8.331,-2.229 -13.181,-2.229 -5.314,0 -9.695,0.857 -13.128,2.571 -3.433,1.712 -5.475,3.894 -6.128,6.546 -0.66,2.649 -0.514,6.411 0.424,11.284 l 0.819,4.256 18.462,0 -1.521,-7.91 c -0.469,-2.437 -0.514,-4.004 -0.126,-4.7 0.388,-0.694 1.236,-1.043 2.561,-1.043 1.323,0 2.392,0.441 3.207,1.325 0.817,0.883 1.388,2.195 1.726,3.936 0.735,3.828 0.603,6.333 -0.396,7.509 -1.035,1.178 -3.755,3.146 -8.171,5.905 -4.404,2.783 -7.288,4.804 -8.653,6.064 -1.362,1.257 -2.355,2.997 -2.982,5.22 -0.633,2.222 -0.612,5.061 0.054,8.514 0.962,4.979 2.409,8.621 4.347,10.924 1.937,2.302 4.7,4.102 8.287,5.403 3.588,1.298 7.743,1.946 12.464,1.946 5.164,0 9.425,-0.709 12.787,-2.128 3.367,-1.418 5.432,-3.206 6.193,-5.363 C 1.604,11.398 1.488,7.736 0.494,2.569 L 0,0 Z"
             style="fill:#ee2722;fill-opacity:1;fill-rule:nonzero;stroke:none"
             id="path3795"
             inkscape:connector-curvature="0" /></g><g
           id="g3797"
           transform="translate(403.3418,195.5474)"><path
             d="m 0,0 -12.516,-65.023 -19.882,0 5.255,27.31 -5.947,0 -5.256,-27.31 -19.883,0 12.515,65.023 19.878,0 -4.471,-23.253 5.951,0 L -19.883,0 0,0 Z"
             style="fill:#ee2722;fill-opacity:1;fill-rule:nonzero;stroke:none"
             id="path3799"
             inkscape:connector-curvature="0" /></g><g
           id="g3801"
           transform="translate(429.3145,195.5474)"><path
             d="m 0,0 -12.516,-65.023 -19.878,0 L -19.881,0 0,0 Z"
             style="fill:#ee2722;fill-opacity:1;fill-rule:nonzero;stroke:none"
             id="path3803"
             inkscape:connector-curvature="0" /></g><g
           id="g3805"
           transform="translate(435.416,195.5474)"><path
             d="m 0,0 33.673,0 -2.505,-13.013 -13.787,0 -2.375,-12.33 12.278,0 -2.374,-12.37 -12.282,0 -5.256,-27.31 -19.883,0 L 0,0 Z"
             style="fill:#ee2722;fill-opacity:1;fill-rule:nonzero;stroke:none"
             id="path3807"
             inkscape:connector-curvature="0" /></g><g
           id="g3809"
           transform="translate(515.333,195.5474)"><path
             d="m 0,0 -2.505,-13.013 -11.804,0 -10.011,-52.01 -19.878,0 10.01,52.01 -11.761,0 L -43.444,0 0,0 Z"
             style="fill:#ee2722;fill-opacity:1;fill-rule:nonzero;stroke:none"
             id="path3811"
             inkscape:connector-curvature="0" /></g><g
           id="g3813"
           transform="translate(124.8232,134.584)"><path
             d="m 0,0 c -1.368,-1.6 -3.157,-2.777 -4.776,-4.127 -3.348,0.112 -6.163,0.031 -9.884,0 -3.653,-0.032 -8.661,-0.39 -10.532,0.975 -0.852,0.626 -1.181,1.84 -1.953,2.608 1.229,1.221 3.057,2.994 4.993,4.343 0.708,0.49 3.515,0.214 5.215,0.214 l 11.51,0 c 0.812,0 1.755,0.128 2.169,0 C -2.001,3.646 -0.986,0.695 0,0"
             style="fill:#ee2722;fill-opacity:1;fill-rule:nonzero;stroke:none"
             id="path3815"
             inkscape:connector-curvature="0" /></g><g
           id="g3817"
           transform="translate(158.5884,138.3828)"><path
             d="m 0,0 c 0.992,-1.439 2.027,-2.828 3.043,-4.233 -1.384,-1.54 -3.045,-3.56 -6.188,-3.799 -1.937,-0.153 -4.126,0.061 -6.3,0.106 -2.188,0.045 -4.425,-0.098 -6.407,-0.106 -1.875,-0.013 -4.316,-0.07 -5.536,0.648 -1.061,0.627 -1.401,1.938 -2.062,2.607 1.544,1.892 3.657,3.22 5.429,4.882 C -11.193,0.111 -5.006,0.102 0,0"
             style="fill:#ee2722;fill-opacity:1;fill-rule:nonzero;stroke:none"
             id="path3819"
             inkscape:connector-curvature="0" /></g><g
           id="g3821"
           transform="translate(284.7534,133.6055)"><path
             d="m 0,0 c -1.419,-1.457 -2.792,-3.376 -5.75,-3.586 -1.712,-0.12 -4.095,-0.081 -6.407,0 -1.932,0.073 -3.876,-0.052 -5.646,0 -1.872,0.063 -4.262,-0.081 -5.428,0.331 -1.604,0.557 -2.331,2.415 -3.149,3.36 1.68,1.615 3.588,3.001 5.427,4.457 4.865,0.041 11.609,-0.06 16.069,-0.111 0.394,-0.005 1.156,0.239 1.52,0.111 0.666,-0.239 1.48,-1.639 1.847,-2.173 C -0.952,1.575 -0.545,0.772 0,0"
             style="fill:#ee2722;fill-opacity:1;fill-rule:nonzero;stroke:none"
             id="path3823"
             inkscape:connector-curvature="0" /></g><g
           id="g3825"
           transform="translate(137.6372,192.4541)"><path
             d="m 0,0 c -0.703,-0.797 -1.542,-1.427 -2.499,-2.174 -0.648,-0.506 -1.752,-1.733 -2.604,-1.951 -0.991,-0.256 -4.293,0.101 -5.864,0.108 -4.176,0.015 -8.815,-0.046 -12.92,0 -1.124,1.413 -2.088,2.981 -3.152,4.448 1.643,1.638 3.31,3.833 6.844,3.585 3.374,-0.235 8.038,0 12.373,0 1.506,0 3.461,0.271 4.346,0 C -2.751,3.789 -2.19,2.51 -1.739,1.955 -1.066,1.127 -0.437,0.512 0,0"
             style="fill:#ee2722;fill-opacity:1;fill-rule:nonzero;stroke:none"
             id="path3827"
             inkscape:connector-curvature="0" /></g><g
           id="g3829"
           transform="translate(271.4038,196.5806)"><path
             d="M 0,0 C 0.207,-0.761 2.444,-3.076 2.605,-4.126 2.698,-4.752 2.204,-6.217 1.954,-7.384 0.601,-13.75 -0.668,-19.871 -2.068,-26.493 c -0.222,-1.058 -0.411,-2.382 -0.761,-3.04 -0.683,-1.322 -3.318,-2.765 -4.338,-3.801 -0.421,0.561 -0.863,1.238 -1.419,1.953 -0.445,0.586 -1.291,1.267 -1.406,1.848 -0.143,0.745 0.414,2.244 0.651,3.256 1.708,7.202 3.214,15.283 4.673,22.151 C -3.023,-2.842 -1.632,-1.304 0,0"
             style="fill:#ee2722;fill-opacity:1;fill-rule:nonzero;stroke:none"
             id="path3831"
             inkscape:connector-curvature="0" /></g><g
           id="g3833"
           transform="translate(174.6582,192.8853)"><path
             d="m 0,0 c -1.559,-1.769 -3.529,-3.124 -5.314,-4.662 -4.582,0.065 -9.219,0.061 -13.901,0.105 -1.479,0.014 -3.181,-0.304 -4.131,0 -1.353,0.432 -2.008,3.535 -3.146,4.34 1.269,0.976 3.02,3.301 5.102,3.696 2.239,0.416 5.526,0 8.577,0 3.425,0 6.563,0.3 9.016,0 C -1.729,3.218 -0.987,1.084 0,0"
             style="fill:#ee2722;fill-opacity:1;fill-rule:nonzero;stroke:none"
             id="path3835"
             inkscape:connector-curvature="0" /></g><g
           id="g3837"
           transform="translate(292.0312,163.1353)"><path
             d="m 0,0 c -0.384,1.055 -2.512,2.576 -2.716,3.913 -0.094,0.629 0.397,2.091 0.65,3.255 1.192,5.338 2.222,10.195 3.37,15.632 0.459,2.177 0.569,4.662 1.302,6.302 0.501,1.118 3.632,3.22 4.344,4.233 C 8.175,32.213 8.903,30.584 9.881,29.208 8.093,20.576 6.288,12.614 4.562,3.913 3.105,2.546 1.459,1.366 0,0"
             style="fill:#ee2722;fill-opacity:1;fill-rule:nonzero;stroke:none"
             id="path3839"
             inkscape:connector-curvature="0" /></g><g
           id="g3841"
           transform="translate(214.6172,196.1465)"><path
             d="m 0,0 c 0.553,-1.293 1.466,-2.227 2.063,-3.478 -1.545,-1.716 -3.427,-3.086 -5.211,-4.56 -6.193,0.034 -12.543,-0.079 -18.021,0.115 -1.031,1.423 -2.088,2.833 -3.042,4.339 0.965,1.529 2.515,2.479 3.799,3.694 C -13.332,0.068 -6.436,0.197 0,0"
             style="fill:#ee2722;fill-opacity:1;fill-rule:nonzero;stroke:none"
             id="path3843"
             inkscape:connector-curvature="0" /></g><g
           id="g3845"
           transform="translate(229.4873,196.1465)"><path
             d="m 0,0 12.491,0 c 4.438,0 8.944,0.392 12.27,0 2.107,-0.25 2.824,-2.083 3.907,-3.478 -1.616,-1.711 -3.457,-3.198 -5.32,-4.665 -4.743,0.017 -9.256,0.037 -13.574,0 C 8.537,-8.157 6.551,-8.42 5.432,-8.038 4.6,-7.751 3.271,-5.042 2.723,-4.237 1.556,-2.532 0.738,-1.535 0,0"
             style="fill:#ee2722;fill-opacity:1;fill-rule:nonzero;stroke:none"
             id="path3847"
             inkscape:connector-curvature="0" /></g><g
           id="g3849"
           transform="translate(227.6484,194.9497)"><path
             d="m 0,0 c 2.115,-2.476 3.786,-5.401 5.646,-8.143 -1.334,-6.262 -2.731,-12.474 -4.021,-18.784 -1.436,-1.17 -2.715,-2.501 -4.234,-3.586 -1.273,0.941 -2.035,2.384 -3.043,3.586 C -3.927,-18.215 -1.889,-9.143 0,0"
             style="fill:#ee2722;fill-opacity:1;fill-rule:nonzero;stroke:none"
             id="path3851"
             inkscape:connector-curvature="0" /></g><g
           id="g3853"
           transform="translate(103.2183,163.5723)"><path
             d="m 0,0 c -0.815,1.356 -1.825,2.521 -2.606,3.91 0.828,5.428 2.539,11.432 3.58,16.61 0.28,1.391 0.217,2.778 0.865,3.911 0.572,0.978 3.271,2.94 4.132,3.797 C 6.327,27.627 8.654,24.99 8.792,23.89 8.91,22.961 8.088,20.009 7.815,18.782 7.064,15.393 6.375,12.516 5.645,9.008 5.289,7.306 5.11,5.323 4.562,4.124 3.875,2.635 1.16,1.091 0,0"
             style="fill:#ee2722;fill-opacity:1;fill-rule:nonzero;stroke:none"
             id="path3855"
             inkscape:connector-curvature="0" /></g><g
           id="g3857"
           transform="translate(149.6875,187.2407)"><path
             d="m 0,0 c -0.967,-4.558 -2.231,-9.935 -3.256,-14.873 -0.343,-1.661 -0.479,-3.665 -1.085,-4.886 -0.923,-1.853 -3.299,-2.567 -4.454,-4.129 -0.363,1.055 -2.552,2.798 -2.713,4.129 -0.136,1.126 0.738,3.57 1.084,5.21 0.701,3.331 1.401,6.374 2.172,10.207 0.363,1.802 0.651,3.899 1.301,4.993 0.822,1.38 3.204,2.633 4.022,3.691 C -1.916,2.938 -1.019,1.405 0,0"
             style="fill:#ee2722;fill-opacity:1;fill-rule:nonzero;stroke:none"
             id="path3859"
             inkscape:connector-curvature="0" /></g><g
           id="g3861"
           transform="translate(183.1313,163.459)"><path
             d="m 0,0 c -0.33,1.167 -2.5,2.535 -2.719,3.804 -0.191,1.129 0.74,3.92 0.982,5.105 0.985,4.879 2.404,10.408 3.144,15.094 1.478,1.346 2.883,2.762 4.453,4.014 C 6.299,27.38 8.528,24.949 8.683,23.887 8.868,22.659 7.885,20.134 7.599,18.789 6.518,13.75 5.401,8.258 4.448,3.697 2.856,2.574 1.745,0.974 0,0"
             style="fill:#ee2722;fill-opacity:1;fill-rule:nonzero;stroke:none"
             id="path3863"
             inkscape:connector-curvature="0" /></g><g
           id="g3865"
           transform="translate(168.7983,163.459)"><path
             d="m 0,0 c -0.85,1.291 -1.718,2.557 -2.609,3.804 1.311,6.613 2.799,13.056 4.128,19.65 1.751,1.513 3.505,3.011 5.32,4.45 C 8.097,26.586 9.227,25.141 8.795,22.477 8.338,19.668 7.426,16.437 6.731,13.247 6.012,9.952 5.292,6.695 4.774,3.914 3.193,2.601 1.773,1.126 0,0"
             style="fill:#ee2722;fill-opacity:1;fill-rule:nonzero;stroke:none"
             id="path3867"
             inkscape:connector-curvature="0" /></g><g
           id="g3869"
           transform="translate(252.3975,164.332)"><path
             d="m 0,0 c -0.862,1.198 -1.623,2.494 -2.494,3.691 0.871,4.313 2.073,9.324 3.041,14.113 0.294,1.476 0.363,3.559 0.975,4.671 0.398,0.725 1.627,1.504 2.391,2.171 1.03,0.897 1.941,1.597 2.712,2.385 C 7.399,26.335 8.567,24.649 8.687,23.014 8.808,21.439 8.203,19.798 7.822,18.022 7.16,14.929 6.538,11.688 5.864,8.469 5.524,6.834 5.145,4.973 4.562,4.019 3.556,2.338 1.344,1.204 0,0"
             style="fill:#ee2722;fill-opacity:1;fill-rule:nonzero;stroke:none"
             id="path3871"
             inkscape:connector-curvature="0" /></g><g
           id="g3873"
           transform="translate(211.1401,163.2466)"><path
             d="m 0,0 c -0.463,0.57 -1.013,1.237 -1.519,1.953 -0.404,0.581 -1.221,1.498 -1.301,2.064 -0.082,0.586 0.363,1.61 0.543,2.499 1.09,5.454 2.545,11.974 3.582,17.15 1.714,1.44 3.476,2.825 5.214,4.239 0.88,-0.962 1.544,-2.145 2.277,-3.26 C 7.989,19.79 6.649,14.309 5.54,9.122 5.17,7.405 5.099,5.317 4.455,4.017 4.092,3.289 2.955,2.528 2.279,1.953 1.463,1.25 0.659,0.685 0,0"
             style="fill:#ee2722;fill-opacity:1;fill-rule:nonzero;stroke:none"
             id="path3875"
             inkscape:connector-curvature="0" /></g><g
           id="g3877"
           transform="translate(205.8184,186.481)"><path
             d="m 0,0 c -0.936,-5.323 -2.238,-10.281 -3.248,-15.527 -1.456,-1.227 -2.949,-2.41 -4.348,-3.691 -1.175,1.032 -1.945,2.471 -2.933,3.691 1.014,5.141 2.134,10.171 3.258,15.206 -0.002,0.179 0.078,0.276 0.219,0.321 L 0,0 Z"
             style="fill:#ee2722;fill-opacity:1;fill-rule:nonzero;stroke:none"
             id="path3879"
             inkscape:connector-curvature="0" /></g><g
           id="g3881"
           transform="translate(251.0972,163.2466)"><path
             d="m 0,0 c -1.718,-1.184 -3.164,-3.766 -5.756,-4.126 -4.72,-0.655 -11.312,0.49 -16.615,0 -0.918,1.289 -1.919,2.491 -2.707,3.907 1.236,1.553 2.941,2.627 4.34,4.02 3.751,0.236 10.353,-0.101 15.419,0 0.991,0.019 2.214,0.207 2.714,0 C -1.204,3.22 -1.012,0.972 0,0"
             style="fill:#ee2722;fill-opacity:1;fill-rule:nonzero;stroke:none"
             id="path3883"
             inkscape:connector-curvature="0" /></g><g
           id="g3885"
           transform="translate(106.0381,159.6636)"><path
             d="m 0,0 c -1.332,-6.596 -2.865,-12.99 -4.119,-19.656 -1.65,-1.643 -3.408,-3.181 -5.328,-4.559 -0.769,1.172 -2.096,2.571 -1.95,4.67 0.095,1.451 0.595,3.207 0.974,4.885 0.901,3.984 1.719,7.996 2.609,12.052 0.555,2.542 0.61,2.779 2.495,4.342 0.997,0.826 1.926,1.467 2.605,1.955 C -1.769,2.497 -0.991,1.141 0,0"
             style="fill:#ee2722;fill-opacity:1;fill-rule:nonzero;stroke:none"
             id="path3887"
             inkscape:connector-curvature="0" /></g><g
           id="g3889"
           transform="translate(163.1523,135.3428)"><path
             d="m 0,0 c -1.146,1.171 -1.932,2.7 -2.935,4.016 1.041,5.391 2.467,11.766 3.693,17.591 0.177,0.833 0.26,1.853 0.54,2.387 0.45,0.842 3.711,3.094 4.453,3.91 0.307,-0.683 2.664,-2.81 2.823,-3.91 C 8.738,22.863 7.813,20.384 7.489,18.89 6.71,15.29 6.145,12.439 5.32,8.686 4.948,6.978 4.698,4.765 4.122,3.691 3.299,2.142 0.871,1.194 0,0"
             style="fill:#ee2722;fill-opacity:1;fill-rule:nonzero;stroke:none"
             id="path3891"
             inkscape:connector-curvature="0" /></g><g
           id="g3893"
           transform="translate(176.1831,129.8057)"><path
             d="m 0,0 c -0.701,0.415 -1.012,1.268 -1.525,2.063 -0.459,0.71 -1.307,1.437 -1.411,2.171 -0.11,0.795 0.317,2.199 0.544,3.255 1.483,6.94 3.341,15.158 4.671,21.932 1.515,1.417 3.128,2.737 4.773,4.02 0.952,-1.22 1.758,-2.586 2.606,-3.91 C 8.125,22.64 6.638,14.769 4.992,7.489 4.756,6.441 4.689,5.138 4.339,4.344 3.665,2.809 0.901,1.426 0,0"
             style="fill:#ee2722;fill-opacity:1;fill-rule:nonzero;stroke:none"
             id="path3895"
             inkscape:connector-curvature="0" /></g><g
           id="g3897"
           transform="translate(134.1616,135.0156)"><path
             d="m 0,0 c -0.994,1.285 -2.121,2.4 -2.06,4.453 0.039,1.533 0.719,3.285 1.082,4.993 1.014,4.786 2.123,10.388 3.153,15.094 1.57,1.103 2.835,2.519 4.449,3.58 C 6.92,27.442 9.276,25.402 9.446,24.428 9.632,23.354 8.627,20.632 8.357,19.434 7.255,14.446 6.152,8.901 5.21,4.343 3.425,2.947 1.737,1.448 0,0"
             style="fill:#ee2722;fill-opacity:1;fill-rule:nonzero;stroke:none"
             id="path3899"
             inkscape:connector-curvature="0" /></g><g
           id="g3901"
           transform="translate(203.7578,129.6953)"><path
             d="m 0,0 c -0.39,1.591 -2.263,2.684 -2.496,4.236 -0.237,1.588 0.79,3.595 1.089,4.995 1.419,6.713 2.818,13.8 4.122,20.194 1.493,1.37 2.966,2.755 4.563,4.015 0.252,-0.637 2.654,-2.885 2.821,-3.908 0.099,-0.605 -0.41,-2.027 -0.65,-3.149 C 8.281,21.009 7.241,16.032 6.082,10.748 5.616,8.619 5.496,6.104 4.777,4.454 4.412,3.601 3.292,2.802 2.495,2.065 1.611,1.236 0.827,0.349 0,0"
             style="fill:#ee2722;fill-opacity:1;fill-rule:nonzero;stroke:none"
             id="path3903"
             inkscape:connector-curvature="0" /></g><g
           id="g3905"
           transform="translate(266.9502,159.0142)"><path
             d="m 0,0 c -1.26,-5.345 -2.526,-11.749 -3.799,-17.486 -0.193,-0.845 -0.25,-1.814 -0.548,-2.385 -0.443,-0.859 -1.74,-1.555 -2.492,-2.174 -0.903,-0.738 -1.668,-1.435 -2.496,-2.061 -0.79,0.745 -2.002,2.044 -2.177,3.475 -0.193,1.646 0.509,3.728 0.872,5.429 0.876,4.058 1.647,8.391 2.713,12.81 0.203,0.838 0.372,1.821 0.651,2.392 0.512,1.041 3.467,3.146 4.345,3.907 0.049,0.043 0.309,0.331 0.328,0.107 C -1.648,2.768 -0.825,1.379 0,0"
             style="fill:#ee2722;fill-opacity:1;fill-rule:nonzero;stroke:none"
             id="path3907"
             inkscape:connector-curvature="0" /></g><g
           id="g3909"
           transform="translate(294.8516,158.9028)"><path
             d="m 0,0 c -1.154,-4.715 -2.349,-10.676 -3.473,-16.067 -0.358,-1.747 -0.75,-3.762 -1.515,-4.89 -0.973,-1.412 -2.539,-2.147 -3.695,-3.256 -0.365,0.62 -0.952,1.249 -1.523,2.062 -0.418,0.604 -1.301,1.526 -1.409,2.175 -0.177,1.111 0.657,3.563 0.977,5.102 0.889,4.255 1.903,8.142 2.823,12.375 0.193,0.902 0.173,1.912 0.433,2.499 0.323,0.714 3.829,3.444 4.451,4.125 C -1.901,2.803 -0.88,1.47 0,0"
             style="fill:#ee2722;fill-opacity:1;fill-rule:nonzero;stroke:none"
             id="path3911"
             inkscape:connector-curvature="0" /></g><g
           id="g3913"
           transform="translate(227.2144,158.3604)"><path
             d="m 0,0 c -1.854,-8.136 -3.576,-16.406 -5.326,-24.649 -1.439,-1.343 -2.759,-2.804 -4.342,-4.016 -1.181,1.132 -1.941,2.69 -2.929,4.016 1.586,7.924 3.448,15.95 5.1,24.106 1.583,1.386 3.121,2.819 4.671,4.234 C -1.73,2.611 -1.018,1.153 0,0"
             style="fill:#ee2722;fill-opacity:1;fill-rule:nonzero;stroke:none"
             id="path3915"
             inkscape:connector-curvature="0" /></g><g
           id="g3917"
           transform="translate(287.7979,124.2656)"><path
             d="m 0,0 3.614,0 -2.784,-13.425 -3.617,0 L 0,0 Z"
             style="fill:#ee2722;fill-opacity:1;fill-rule:nonzero;stroke:none"
             id="path3919"
             inkscape:connector-curvature="0" /></g><g
           id="g3921"
           transform="translate(294.0859,124.2656)"><path
             d="m 0,0 4.482,0 2.751,-9.31 0.038,0 1.882,9.31 3.386,0 -2.846,-13.425 -4.46,0 -2.811,9.289 -0.038,0 -1.863,-9.289 -3.388,0 L 0,0 Z"
             style="fill:#ee2722;fill-opacity:1;fill-rule:nonzero;stroke:none"
             id="path3923"
             inkscape:connector-curvature="0" /></g><g
           id="g3925"
           transform="translate(310.7998,121.6123)"><path
             d="m 0,0 -3.348,0 0.577,2.653 10.326,0 L 6.979,0 3.633,0 1.349,-10.771 l -3.64,0 L 0,0 Z"
             style="fill:#ee2722;fill-opacity:1;fill-rule:nonzero;stroke:none"
             id="path3927"
             inkscape:connector-curvature="0" /></g><g
           id="g3929"
           transform="translate(319.7988,124.2656)"><path
             d="m 0,0 9.445,0 -0.523,-2.54 -5.902,0 -0.614,-2.769 5.594,0 -0.558,-2.538 -5.577,0 -0.653,-3.039 6.136,0 -0.522,-2.539 -9.708,0 L 0,0 Z"
             style="fill:#ee2722;fill-opacity:1;fill-rule:nonzero;stroke:none"
             id="path3931"
             inkscape:connector-curvature="0" /></g><g
           id="g3933"
           transform="translate(331.4551,124.2656)"><path
             d="m 0,0 3.633,0 -2.227,-10.769 5.611,0 -0.555,-2.656 -9.249,0 L 0,0 Z"
             style="fill:#ee2722;fill-opacity:1;fill-rule:nonzero;stroke:none"
             id="path3935"
             inkscape:connector-curvature="0" /></g><g
           id="g3937"
           transform="translate(342.1465,124.2656)"><path
             d="m 0,0 3.639,0 -2.234,-10.769 5.618,0 -0.561,-2.656 -9.247,0 L 0,0 Z"
             style="fill:#ee2722;fill-opacity:1;fill-rule:nonzero;stroke:none"
             id="path3939"
             inkscape:connector-curvature="0" /></g><g
           id="g3941"
           transform="translate(352.9941,124.2656)"><path
             d="m 0,0 3.619,0 -2.788,-13.425 -3.62,0 L 0,0 Z"
             style="fill:#ee2722;fill-opacity:1;fill-rule:nonzero;stroke:none"
             id="path3943"
             inkscape:connector-curvature="0" /></g><g
           id="g3945"
           transform="translate(370.0332,121.1113)"><path
             d="m 0,0 c -1.171,0.519 -2.326,0.732 -3.884,0.732 -3.596,0 -5.04,-2.542 -5.04,-5.079 0,-2.383 1.522,-3.5 3.349,-3.5 0.464,0 0.921,0.078 1.424,0.233 l 0.596,2.654 -2.137,0 0.52,2.534 5.634,0 -1.597,-7.478 c -1.344,-0.404 -3.519,-0.595 -4.671,-0.595 -4.33,0 -6.805,2.556 -6.805,6.249 0,4.464 2.672,7.635 8.904,7.635 1.633,0 3.016,-0.271 4.476,-0.654 L 0,0 Z"
             style="fill:#ee2722;fill-opacity:1;fill-rule:nonzero;stroke:none"
             id="path3947"
             inkscape:connector-curvature="0" /></g><g
           id="g3949"
           transform="translate(374.3076,124.2656)"><path
             d="m 0,0 9.438,0 -0.513,-2.54 -5.907,0 -0.619,-2.769 5.601,0 -0.56,-2.538 -5.58,0 -0.651,-3.039 6.134,0 -0.513,-2.539 -9.713,0 L 0,0 Z"
             style="fill:#ee2722;fill-opacity:1;fill-rule:nonzero;stroke:none"
             id="path3951"
             inkscape:connector-curvature="0" /></g><g
           id="g3953"
           transform="translate(385.998,124.2656)"><path
             d="m 0,0 4.485,0 2.746,-9.31 0.039,0 1.881,9.31 3.393,0 -2.85,-13.425 -4.464,0 -2.806,9.289 -0.033,0 -1.874,-9.289 -3.382,0 L 0,0 Z"
             style="fill:#ee2722;fill-opacity:1;fill-rule:nonzero;stroke:none"
             id="path3955"
             inkscape:connector-curvature="0" /></g><g
           id="g3957"
           transform="translate(402.7148,121.6123)"><path
             d="m 0,0 -3.349,0 0.578,2.653 10.324,0 L 6.979,0 3.631,0 1.344,-10.771 l -3.637,0 L 0,0 Z"
             style="fill:#ee2722;fill-opacity:1;fill-rule:nonzero;stroke:none"
             id="path3959"
             inkscape:connector-curvature="0" /></g><g
           id="g3961"
           transform="translate(425.6406,121.2266)"><path
             d="m 0,0 c -0.696,0.326 -1.639,0.617 -2.965,0.617 -1.42,0 -2.58,-0.214 -2.58,-1.288 0,-1.906 5.213,-1.195 5.213,-5.27 0,-3.714 -3.441,-4.673 -6.556,-4.673 -1.381,0 -2.977,0.325 -4.151,0.691 l 0.839,2.729 c 0.717,-0.46 2.138,-0.768 3.312,-0.768 1.117,0 2.864,0.211 2.864,1.597 0,2.154 -5.212,1.344 -5.212,5.135 0,3.461 3.041,4.5 5.985,4.5 1.649,0 3.215,-0.174 4.111,-0.597 L 0,0 Z"
             style="fill:#ee2722;fill-opacity:1;fill-rule:nonzero;stroke:none"
             id="path3963"
             inkscape:connector-curvature="0" /></g><g
           id="g3965"
           transform="translate(429.2568,124.2656)"><path
             d="m 0,0 3.598,0 -1.063,-5.134 4.251,0 1.059,5.134 3.593,0 -2.791,-13.425 -3.592,0 1.193,5.752 -4.252,0 -1.19,-5.752 -3.596,0 L 0,0 Z"
             style="fill:#ee2722;fill-opacity:1;fill-rule:nonzero;stroke:none"
             id="path3967"
             inkscape:connector-curvature="0" /></g><g
           id="g3969"
           transform="translate(443.2959,124.2656)"><path
             d="m 0,0 3.615,0 -2.792,-13.425 -3.616,0 L 0,0 Z"
             style="fill:#ee2722;fill-opacity:1;fill-rule:nonzero;stroke:none"
             id="path3971"
             inkscape:connector-curvature="0" /></g><g
           id="g3973"
           transform="translate(449.415,124.2656)"><path
             d="m 0,0 8.972,0 -0.494,-2.54 -5.462,0 -0.674,-2.941 5.268,0 -0.517,-2.539 -5.194,0 -1.137,-5.405 -3.616,0 L 0,0 Z"
             style="fill:#ee2722;fill-opacity:1;fill-rule:nonzero;stroke:none"
             id="path3975"
             inkscape:connector-curvature="0" /></g><g
           id="g3977"
           transform="translate(462.0312,121.6123)"><path
             d="m 0,0 -3.35,0 0.577,2.653 10.325,0 L 6.976,0 3.63,0 1.343,-10.771 l -3.636,0 L 0,0 Z"
             style="fill:#ee2722;fill-opacity:1;fill-rule:nonzero;stroke:none"
             id="path3979"
             inkscape:connector-curvature="0" /></g><g
           id="g3981"
           transform="translate(471.084,124.2656)"><path
             d="m 0,0 3.618,0 -2.788,-13.425 -3.618,0 L 0,0 Z"
             style="fill:#ee2722;fill-opacity:1;fill-rule:nonzero;stroke:none"
             id="path3983"
             inkscape:connector-curvature="0" /></g><g
           id="g3985"
           transform="translate(477.376,124.2656)"><path
             d="m 0,0 4.479,0 2.75,-9.31 0.039,0 1.883,9.31 3.386,0 -2.845,-13.425 -4.464,0 -2.805,9.289 -0.039,0 -1.866,-9.289 -3.385,0 L 0,0 Z"
             style="fill:#ee2722;fill-opacity:1;fill-rule:nonzero;stroke:none"
             id="path3987"
             inkscape:connector-curvature="0" /></g><g
           id="g3989"
           transform="translate(503.0859,121.1113)"><path
             d="m 0,0 c -1.17,0.519 -2.327,0.732 -3.883,0.732 -3.596,0 -5.035,-2.542 -5.035,-5.079 0,-2.383 1.52,-3.5 3.345,-3.5 0.458,0 0.92,0.078 1.423,0.233 l 0.597,2.654 -2.138,0 0.523,2.534 5.633,0 -1.598,-7.478 c -1.344,-0.404 -3.52,-0.595 -4.672,-0.595 -4.328,0 -6.81,2.556 -6.81,6.249 0,4.464 2.674,7.635 8.906,7.635 1.635,0 3.022,-0.271 4.481,-0.654 L 0,0 Z"
             style="fill:#ee2722;fill-opacity:1;fill-rule:nonzero;stroke:none"
             id="path3991"
             inkscape:connector-curvature="0" /></g></g></g><g
       id="g3993"><g
         id="g3995"><g
           id="g4001"><g
             id="g4003"><path
               d="m 86,111.333 194.66,-0.351 3.022,13.247 -194.659,0.35 L 86,111.333 Z"
               style="fill:url(#linearGradient4005);stroke:none"
               id="path4011"
               inkscape:connector-curvature="0" /></g></g></g></g></g></svg>