<?xml version="1.0" encoding="UTF-8" standalone="no"?>
<!-- Created with Inkscape (http://www.inkscape.org/) -->

<svg
   xmlns:dc="http://purl.org/dc/elements/1.1/"
   xmlns:cc="http://creativecommons.org/ns#"
   xmlns:rdf="http://www.w3.org/1999/02/22-rdf-syntax-ns#"
   xmlns:svg="http://www.w3.org/2000/svg"
   xmlns="http://www.w3.org/2000/svg"
   xmlns:sodipodi="http://sodipodi.sourceforge.net/DTD/sodipodi-0.dtd"
   xmlns:inkscape="http://www.inkscape.org/namespaces/inkscape"
   width="210mm"
   height="297mm"
   viewBox="0 0 744.09448819 1052.3622047"
   id="svg2"
   version="1.1"
   inkscape:version="0.91 r13725"
   sodipodi:docname="hgm logo.svg">
  <defs
     id="defs4">
    <clipPath
       id="clipPath3350"
       clipPathUnits="userSpaceOnUse">
      <path
         inkscape:connector-curvature="0"
         id="path3352"
         d="M 0,432 432,432 432,0 0,0 0,432 Z" />
    </clipPath>
  </defs>
  <sodipodi:namedview
     id="base"
     pagecolor="#ffffff"
     bordercolor="#666666"
     borderopacity="1.0"
     inkscape:pageopacity="0.0"
     inkscape:pageshadow="2"
     inkscape:zoom="0.35"
     inkscape:cx="375"
     inkscape:cy="520"
     inkscape:document-units="px"
     inkscape:current-layer="layer1"
     showgrid="false"
     inkscape:window-width="966"
     inkscape:window-height="823"
     inkscape:window-x="608"
     inkscape:window-y="134"
     inkscape:window-maximized="0" />
  <metadata
     id="metadata7">
    <rdf:RDF>
      <cc:Work
         rdf:about="">
        <dc:format>image/svg+xml</dc:format>
        <dc:type
           rdf:resource="http://purl.org/dc/dcmitype/StillImage" />
        <dc:title></dc:title>
      </cc:Work>
    </rdf:RDF>
  </metadata>
  <g
     inkscape:label="Layer 1"
     inkscape:groupmode="layer"
     id="layer1">
    <g
       transform="matrix(1.25,0,0,-1.25,49.745877,655.81091)"
       inkscape:label="HGM_LOGO_FINAL"
       id="g3344">
      <g
         id="g3346">
        <g
           clip-path="url(#clipPath3350)"
           id="g3348">
          <g
             transform="translate(346.5693,213.8184)"
             id="g3354">
            <path
               inkscape:connector-curvature="0"
               id="path3356"
               style="fill:#ffffff;fill-opacity:1;fill-rule:nonzero;stroke:none"
               d="m 0,0 c 0,-45.187 -58.803,-81.818 -131.339,-81.818 -72.537,0 -131.34,36.631 -131.34,81.818 0,45.188 58.803,81.819 131.34,81.819 C -58.803,81.819 0,45.188 0,0" />
          </g>
          <g
             transform="translate(119.7646,252.6641)"
             id="g3358">
            <path
               inkscape:connector-curvature="0"
               id="path3360"
               style="fill:#ee2722;fill-opacity:1;fill-rule:nonzero;stroke:none"
               d="m 0,0 -0.127,-74.595 18.017,0 0.113,36.822 18.963,0 0.097,-36.822 77.14,0 -0.024,36.822 -25.064,0 0,-13.541 7.118,0 0,-5.075 -18.96,0 0,37.253 40.279,0 -0.012,-55.459 17.977,0 -0.02,48.013 18.447,-18.461 18.972,18.964 0,-48.516 18.445,0 0.033,74.754 -18.478,-0.049 -17.78,-17.901 -18.963,17.98 -77.53,0 0,-56.236 -2.371,0 L 56.102,0.081 38,0.034 38,-19.27 18.474,-19.337 18.414,0 0,0 Z" />
          </g>
          <g
             transform="translate(216.1978,301.9609)"
             id="g3362">
            <path
               inkscape:connector-curvature="0"
               id="path3364"
               style="fill:#ee2722;fill-opacity:1;fill-rule:nonzero;stroke:none"
               d="m 0,0 c -75.095,0 -135.959,-38.796 -135.959,-86.619 0,-47.851 60.864,-86.642 135.959,-86.642 75.072,0 135.97,38.791 135.97,86.642 C 135.97,-38.796 75.072,0 0,0 m 123.72,-86.47 c 0,-41.328 -55.473,-74.887 -123.896,-74.887 -68.868,0 -123.91,32.408 -123.91,74.887 0,41.386 55.471,74.907 123.91,74.907 68.423,0 123.896,-33.521 123.896,-74.907" />
          </g>
          <g
             transform="translate(154.2666,264.876)"
             id="g3366">
            <path
               inkscape:connector-curvature="0"
               id="path3368"
               style="fill:#ee2722;fill-opacity:1;fill-rule:nonzero;stroke:none"
               d="M 0,0 3.77,0 3.468,7.045 0,0 Z m 4.018,-5.202 -0.11,2.365 -5.313,0 -1.154,-2.365 -3.469,0 7.679,15.825 4.898,0 0.938,-15.825 -3.469,0 z" />
          </g>
          <g
             transform="translate(176.752,259.6992)"
             id="g3370">
            <path
               inkscape:connector-curvature="0"
               id="path3372"
               style="fill:#ee2722;fill-opacity:1;fill-rule:nonzero;stroke:none"
               d="m 0,0 -3.385,0 0.302,1.46 C -3.726,0.484 -4.568,0 -5.616,0 l -3.549,0 c -0.661,0 -1.211,0.03 -1.652,0.086 -0.441,0.055 -0.788,0.153 -1.045,0.305 -0.257,0.142 -0.441,0.333 -0.55,0.561 -0.111,0.226 -0.167,0.525 -0.167,0.894 0,0.204 0.018,0.426 0.056,0.675 0.036,0.245 0.093,0.524 0.166,0.836 l 1.787,8.533 3.358,0 L -8.78,4.487 C -8.854,4.121 -8.891,3.826 -8.891,3.606 c 0,-0.309 0.106,-0.519 0.317,-0.619 0.211,-0.1 0.637,-0.152 1.28,-0.152 l 2.698,0 c 0.441,0 0.784,0.022 1.032,0.071 0.247,0.045 0.443,0.127 0.59,0.249 0.149,0.115 0.258,0.283 0.332,0.492 0.072,0.213 0.146,0.493 0.219,0.84 l 1.568,7.403 3.359,0 L 0,0 Z" />
          </g>
          <g
             transform="translate(185.7793,259.6738)"
             id="g3374">
            <path
               inkscape:connector-curvature="0"
               id="path3376"
               style="fill:#ee2722;fill-opacity:1;fill-rule:nonzero;stroke:none"
               d="M 0,0 -2.727,0 C -3.992,0 -4.873,0.121 -5.365,0.372 -5.864,0.618 -6.11,1.12 -6.11,1.871 c 0,0.422 0.063,0.917 0.191,1.485 l 2.645,12.469 3.386,0 -0.857,-3.936 3.276,0 -0.632,-2.861 -3.223,0 -0.96,-4.515 c -0.091,-0.456 -0.14,-0.762 -0.14,-0.908 0,-0.313 0.107,-0.516 0.317,-0.607 0.213,-0.093 0.638,-0.138 1.282,-0.138 l 1.429,0 L 0,0 Z" />
          </g>
          <g
             transform="translate(198.6021,264.1865)"
             id="g3378">
            <path
               inkscape:connector-curvature="0"
               id="path3380"
               style="fill:#ee2722;fill-opacity:1;fill-rule:nonzero;stroke:none"
               d="m 0,0 0.608,2.859 c 0.091,0.461 0.134,0.763 0.134,0.913 0,0.311 -0.104,0.511 -0.316,0.603 -0.21,0.093 -0.639,0.141 -1.277,0.141 l -2.699,0 C -3.933,4.516 -4.251,4.501 -4.498,4.474 -4.747,4.446 -4.948,4.375 -5.106,4.267 -5.262,4.157 -5.386,3.994 -5.477,3.772 -5.568,3.551 -5.65,3.249 -5.723,2.859 L -6.328,0 c -0.091,-0.456 -0.141,-0.762 -0.141,-0.907 0,-0.314 0.108,-0.517 0.318,-0.608 0.212,-0.092 0.637,-0.137 1.281,-0.137 l 2.698,0 c 0.422,0 0.755,0.018 1.005,0.057 0.247,0.038 0.444,0.115 0.59,0.231 0.145,0.122 0.261,0.285 0.343,0.496 C -0.152,-0.658 -0.072,-0.366 0,0 M 3.113,-1.156 C 2.964,-1.874 2.785,-2.446 2.575,-2.877 2.365,-3.31 2.088,-3.649 1.748,-3.895 1.41,-4.141 0.973,-4.306 0.441,-4.392 -0.091,-4.472 -0.754,-4.513 -1.541,-4.513 l -5.231,0 c -1.265,0 -2.146,0.121 -2.638,0.372 -0.499,0.246 -0.744,0.748 -0.744,1.499 0,0.422 0.064,0.917 0.192,1.486 l 1.1,5.174 c 0.166,0.716 0.352,1.294 0.565,1.735 0.213,0.44 0.485,0.78 0.826,1.018 0.34,0.235 0.772,0.399 1.295,0.48 0.523,0.085 1.168,0.125 1.94,0.125 l 5.227,0 c 0.681,0 1.24,-0.033 1.678,-0.094 C 3.113,7.214 3.46,7.114 3.715,6.978 3.972,6.838 4.152,6.647 4.253,6.399 4.353,6.148 4.404,5.852 4.404,5.506 4.404,5.083 4.341,4.588 4.213,4.018 l -1.1,-5.174 z" />
          </g>
          <g
             transform="translate(223.1523,259.6738)"
             id="g3382">
            <path
               inkscape:connector-curvature="0"
               id="path3384"
               style="fill:#ee2722;fill-opacity:1;fill-rule:nonzero;stroke:none"
               d="m 0,0 -3.359,0 1.57,7.372 c 0.072,0.371 0.109,0.672 0.109,0.913 0,0.311 -0.103,0.511 -0.316,0.603 -0.209,0.092 -0.639,0.14 -1.277,0.14 l -1.326,0 c -0.42,0 -0.753,-0.017 -1.003,-0.056 C -5.85,8.935 -6.045,8.859 -6.191,8.737 -6.34,8.619 -6.453,8.452 -6.537,8.23 -6.62,8.007 -6.697,7.721 -6.769,7.372 L -8.34,0 -11.723,0 -9.99,8.285 c 0,0.311 -0.107,0.511 -0.317,0.603 -0.213,0.092 -0.638,0.14 -1.279,0.14 l -1.323,0 c -0.423,0 -0.757,-0.017 -1.003,-0.056 C -14.161,8.935 -14.359,8.859 -14.504,8.737 -14.653,8.619 -14.767,8.452 -14.848,8.23 -14.933,8.007 -15.01,7.721 -15.083,7.372 L -16.653,0 l -3.384,0 2.532,11.889 3.387,0 -0.303,-1.488 c 0.625,0.994 1.467,1.488 2.531,1.488 l 2.173,0 c 1.212,0 2.051,-0.1 2.519,-0.302 0.469,-0.203 0.749,-0.572 0.84,-1.099 0.186,0.419 0.54,0.759 1.073,1.014 0.535,0.258 1.1,0.387 1.707,0.387 l 2.174,0 c 1.267,0 2.15,-0.125 2.657,-0.371 C 1.758,11.273 2.01,10.771 2.01,10.019 2.01,9.666 1.934,9.175 1.788,8.53 L 0,0 Z" />
          </g>
          <g
             transform="translate(236.1982,264.1865)"
             id="g3386">
            <path
               inkscape:connector-curvature="0"
               id="path3388"
               style="fill:#ee2722;fill-opacity:1;fill-rule:nonzero;stroke:none"
               d="m 0,0 0.604,2.859 c 0.092,0.461 0.137,0.763 0.137,0.913 0,0.311 -0.107,0.511 -0.315,0.603 -0.21,0.093 -0.639,0.141 -1.28,0.141 l -2.696,0 C -3.937,4.516 -4.251,4.501 -4.502,4.474 -4.748,4.446 -4.951,4.375 -5.106,4.267 -5.261,4.157 -5.386,3.994 -5.477,3.772 -5.567,3.551 -5.653,3.249 -5.726,2.859 L -6.331,0 c -0.092,-0.456 -0.138,-0.762 -0.138,-0.907 0,-0.314 0.105,-0.517 0.318,-0.608 0.209,-0.092 0.636,-0.137 1.277,-0.137 l 2.697,0 c 0.424,0 0.757,0.018 1.008,0.057 0.245,0.038 0.443,0.115 0.592,0.231 0.144,0.122 0.26,0.285 0.343,0.496 C -0.151,-0.658 -0.075,-0.366 0,0 M 3.11,-1.156 C 2.962,-1.874 2.784,-2.446 2.573,-2.877 2.36,-3.31 2.085,-3.649 1.746,-3.895 1.407,-4.141 0.972,-4.306 0.44,-4.392 -0.094,-4.472 -0.755,-4.513 -1.54,-4.513 l -5.232,0 c -1.264,0 -2.146,0.121 -2.641,0.372 -0.496,0.246 -0.744,0.748 -0.744,1.499 0,0.422 0.065,0.917 0.194,1.486 l 1.1,5.174 c 0.165,0.716 0.352,1.294 0.566,1.735 0.208,0.44 0.485,0.78 0.823,1.018 0.34,0.235 0.773,0.399 1.294,0.48 0.523,0.085 1.172,0.125 1.941,0.125 l 5.229,0 C 1.67,7.376 2.229,7.343 2.67,7.282 3.11,7.214 3.456,7.114 3.714,6.978 3.97,6.838 4.148,6.647 4.251,6.399 4.353,6.148 4.403,5.852 4.403,5.506 4.403,5.083 4.338,4.588 4.21,4.018 l -1.1,-5.174 z" />
          </g>
          <g
             transform="translate(247.2891,259.6738)"
             id="g3390">
            <path
               inkscape:connector-curvature="0"
               id="path3392"
               style="fill:#ee2722;fill-opacity:1;fill-rule:nonzero;stroke:none"
               d="m 0,0 -2.727,0 c -1.263,0 -2.146,0.121 -2.642,0.372 -0.494,0.246 -0.742,0.748 -0.742,1.499 0,0.422 0.065,0.917 0.194,1.485 l 2.642,12.469 3.384,0 -0.853,-3.936 3.277,0 -0.635,-2.861 -3.218,0 -0.965,-4.515 C -2.377,4.057 -2.421,3.751 -2.421,3.605 c 0,-0.313 0.103,-0.516 0.314,-0.607 0.211,-0.093 0.639,-0.138 1.281,-0.138 l 1.431,0 L 0,0 Z" />
          </g>
          <g
             transform="translate(255.873,272.7998)"
             id="g3394">
            <path
               inkscape:connector-curvature="0"
               id="path3396"
               style="fill:#ee2722;fill-opacity:1;fill-rule:nonzero;stroke:none"
               d="m 0,0 -3.383,0 0.578,2.726 3.383,0 L 0,0 Z m -2.805,-13.126 -3.386,0 2.533,11.915 3.385,0 -2.532,-11.915 z" />
          </g>
          <g
             transform="translate(270.7637,271.5889)"
             id="g3398">
            <path
               inkscape:connector-curvature="0"
               id="path3400"
               style="fill:#ee2722;fill-opacity:1;fill-rule:nonzero;stroke:none"
               d="m 0,0 -6.851,-11.915 -4.899,0 L -13.51,0 -10.184,0 -8.997,-9.74 -3.605,0 0,0 Z" />
          </g>
          <g
             transform="translate(282.7734,264.1865)"
             id="g3402">
            <path
               inkscape:connector-curvature="0"
               id="path3404"
               style="fill:#ee2722;fill-opacity:1;fill-rule:nonzero;stroke:none"
               d="m 0,0 -7.873,0 0.603,2.859 4.598,0 c 0.108,0.516 0.167,0.799 0.167,0.859 0,0.549 -0.44,0.82 -1.321,0.82 l -2.697,0 C -6.891,4.538 -7.197,4.521 -7.447,4.486 -7.693,4.45 -7.896,4.369 -8.051,4.255 -8.205,4.133 -8.337,3.962 -8.439,3.742 -8.538,3.524 -8.627,3.23 -8.701,2.859 L -9.303,0 c -0.075,-0.366 -0.111,-0.661 -0.111,-0.881 0,-0.309 0.104,-0.519 0.315,-0.619 0.211,-0.101 0.641,-0.152 1.283,-0.152 l 6.933,0 -0.602,-2.835 -8.234,0 c -0.66,0 -1.208,0.03 -1.648,0.086 -0.442,0.054 -0.793,0.153 -1.047,0.304 -0.258,0.143 -0.44,0.333 -0.55,0.562 -0.111,0.225 -0.167,0.524 -0.167,0.893 0,0.204 0.018,0.427 0.056,0.675 0.038,0.245 0.093,0.525 0.166,0.837 l 1.072,5.148 c 0.255,1.211 0.747,2.079 1.471,2.6 0.727,0.524 1.785,0.784 3.179,0.784 l 4.845,0 c 1.265,0 2.147,-0.126 2.643,-0.381 C 0.795,6.762 1.045,6.268 1.045,5.531 1.045,5.109 0.979,4.607 0.851,4.018 L 0,0 Z" />
          </g>
          <g
             transform="translate(166.7417,168.4883)"
             id="g3406">
            <path
               inkscape:connector-curvature="0"
               id="path3408"
               style="fill:#ee2722;fill-opacity:1;fill-rule:nonzero;stroke:none"
               d="m 0,0 -12.137,0 0.605,2.838 12.138,0 L 0,0 Z m -2.753,-12.99 -12.137,0 2.829,13.259 3.386,0 -0.848,-3.874 4.294,0 -0.604,-2.863 -4.294,0 -0.771,-3.657 8.752,0 -0.607,-2.865 z" />
          </g>
          <g
             transform="translate(169.1646,155.498)"
             id="g3410">
            <path
               inkscape:connector-curvature="0"
               id="path3412"
               style="fill:#ee2722;fill-opacity:1;fill-rule:nonzero;stroke:none"
               d="m 0,0 -3.386,0 3.356,15.828 3.387,0 L 0,0 Z" />
          </g>
          <g
             transform="translate(184.9062,160.0127)"
             id="g3414">
            <path
               inkscape:connector-curvature="0"
               id="path3416"
               style="fill:#ee2722;fill-opacity:1;fill-rule:nonzero;stroke:none"
               d="m 0,0 -7.873,0 0.608,2.862 4.597,0 c 0.108,0.514 0.164,0.8 0.164,0.854 0,0.551 -0.441,0.828 -1.32,0.828 l -2.698,0 C -6.891,4.544 -7.198,4.525 -7.447,4.487 -7.693,4.448 -7.897,4.373 -8.049,4.252 -8.207,4.133 -8.334,3.966 -8.435,3.744 -8.535,3.521 -8.623,3.23 -8.699,2.862 L -9.301,0 c -0.073,-0.369 -0.11,-0.661 -0.11,-0.881 0,-0.311 0.103,-0.518 0.318,-0.618 0.209,-0.104 0.635,-0.15 1.276,-0.15 l 6.936,0 -0.605,-2.835 -8.229,0 c -0.661,0 -1.211,0.025 -1.652,0.079 -0.44,0.055 -0.788,0.156 -1.045,0.304 -0.256,0.145 -0.44,0.335 -0.55,0.564 -0.112,0.233 -0.165,0.529 -0.165,0.895 0,0.201 0.018,0.424 0.053,0.673 0.038,0.25 0.091,0.532 0.167,0.84 l 1.074,5.149 c 0.255,1.209 0.746,2.077 1.472,2.597 0.726,0.526 1.783,0.786 3.176,0.786 l 4.845,0 c 1.268,0 2.145,-0.127 2.644,-0.384 C 0.796,6.762 1.046,6.265 1.046,5.532 1.046,5.108 0.982,4.604 0.85,4.02 L 0,0 Z" />
          </g>
          <g
             transform="translate(196.7671,155.498)"
             id="g3418">
            <path
               inkscape:connector-curvature="0"
               id="path3420"
               style="fill:#ee2722;fill-opacity:1;fill-rule:nonzero;stroke:none"
               d="M 0,0 -7.046,0 C -7.724,0 -8.283,0.034 -8.724,0.098 -9.165,0.164 -9.515,0.261 -9.77,0.4 c -0.255,0.138 -0.438,0.328 -0.534,0.567 -0.104,0.235 -0.152,0.54 -0.152,0.906 0,0.423 0.061,0.917 0.19,1.486 l 1.101,5.175 c 0.167,0.716 0.354,1.291 0.565,1.734 0.21,0.44 0.496,0.776 0.854,1.016 0.359,0.243 0.791,0.4 1.308,0.486 0.511,0.078 1.153,0.122 1.926,0.122 l 7.046,0 -0.608,-2.865 -5.778,0 C -4.274,9.027 -4.607,9.01 -4.857,8.973 -5.104,8.935 -5.301,8.858 -5.447,8.74 -5.596,8.619 -5.708,8.452 -5.794,8.23 -5.874,8.013 -5.952,7.727 -6.025,7.377 L -6.632,4.515 C -6.725,4.056 -6.769,3.752 -6.769,3.604 c 0,-0.309 0.105,-0.51 0.315,-0.602 0.21,-0.094 0.639,-0.137 1.28,-0.137 l 5.781,0 L 0,0 Z" />
          </g>
          <g
             transform="translate(205.3809,155.498)"
             id="g3422">
            <path
               inkscape:connector-curvature="0"
               id="path3424"
               style="fill:#ee2722;fill-opacity:1;fill-rule:nonzero;stroke:none"
               d="M 0,0 -2.724,0 C -3.989,0 -4.87,0.125 -5.365,0.37 -5.861,0.62 -6.11,1.118 -6.11,1.873 c 0,0.423 0.067,0.917 0.195,1.486 l 2.641,12.469 3.386,0 -0.854,-3.936 3.276,0 -0.632,-2.865 -3.221,0 -0.964,-4.512 C -2.375,4.056 -2.419,3.752 -2.419,3.604 c 0,-0.309 0.103,-0.51 0.315,-0.602 0.211,-0.094 0.639,-0.137 1.28,-0.137 l 1.432,0 L 0,0 Z" />
          </g>
          <g
             transform="translate(218.3174,164.5254)"
             id="g3426">
            <path
               inkscape:connector-curvature="0"
               id="path3428"
               style="fill:#ee2722;fill-opacity:1;fill-rule:nonzero;stroke:none"
               d="M 0,0 -3.964,0 C -4.387,0 -4.721,-0.018 -4.967,-0.055 -5.216,-0.093 -5.415,-0.169 -5.56,-0.287 -5.708,-0.408 -5.821,-0.575 -5.904,-0.797 -5.989,-1.015 -6.066,-1.301 -6.142,-1.65 l -1.566,-7.377 -3.384,0 2.532,11.891 3.387,0 -0.305,-1.488 c 0.622,0.992 1.469,1.488 2.532,1.488 l 3.55,0 L 0,0 Z" />
          </g>
          <g
             transform="translate(228.1914,160.0127)"
             id="g3430">
            <path
               inkscape:connector-curvature="0"
               id="path3432"
               style="fill:#ee2722;fill-opacity:1;fill-rule:nonzero;stroke:none"
               d="m 0,0 0.603,2.862 c 0.09,0.458 0.14,0.763 0.14,0.911 0,0.307 -0.11,0.511 -0.315,0.604 -0.215,0.092 -0.639,0.136 -1.284,0.136 l -2.697,0 C -3.939,4.513 -4.255,4.5 -4.502,4.474 -4.751,4.447 -4.949,4.377 -5.109,4.267 -5.264,4.155 -5.389,3.991 -5.48,3.773 -5.57,3.553 -5.652,3.247 -5.727,2.862 L -6.33,0 c -0.092,-0.459 -0.141,-0.763 -0.141,-0.91 0,-0.31 0.107,-0.511 0.317,-0.603 0.213,-0.093 0.636,-0.136 1.282,-0.136 l 2.696,0 c 0.42,0 0.754,0.016 1.004,0.053 0.248,0.036 0.443,0.115 0.595,0.239 0.145,0.112 0.262,0.281 0.341,0.492 C -0.152,-0.655 -0.078,-0.369 0,0 M 3.107,-1.155 C 2.961,-1.87 2.785,-2.445 2.571,-2.874 2.359,-3.304 2.086,-3.645 1.745,-3.895 1.405,-4.145 0.974,-4.308 0.439,-4.39 -0.096,-4.472 -0.753,-4.515 -1.543,-4.515 l -5.231,0 c -1.265,0 -2.146,0.125 -2.639,0.37 -0.498,0.25 -0.744,0.749 -0.744,1.503 0,0.423 0.063,0.917 0.19,1.487 l 1.101,5.175 c 0.169,0.715 0.353,1.291 0.565,1.733 0.213,0.44 0.488,0.776 0.828,1.017 0.34,0.243 0.772,0.399 1.294,0.485 0.523,0.078 1.167,0.122 1.94,0.122 l 5.23,0 C 1.666,7.377 2.225,7.346 2.669,7.278 3.107,7.214 3.453,7.115 3.717,6.979 3.971,6.839 4.146,6.647 4.25,6.396 4.354,6.151 4.402,5.854 4.402,5.504 4.402,5.082 4.334,4.585 4.209,4.02 L 3.107,-1.155 Z" />
          </g>
          <g
             transform="translate(244.9941,155.498)"
             id="g3434">
            <path
               inkscape:connector-curvature="0"
               id="path3436"
               style="fill:#ee2722;fill-opacity:1;fill-rule:nonzero;stroke:none"
               d="m 0,0 -3.354,0 1.567,7.377 c 0.092,0.458 0.138,0.763 0.138,0.911 0,0.307 -0.106,0.511 -0.316,0.604 -0.211,0.091 -0.639,0.135 -1.28,0.135 l -2.696,0 C -6.364,9.027 -6.697,9.01 -6.948,8.973 -7.193,8.935 -7.393,8.858 -7.541,8.74 -7.687,8.619 -7.802,8.452 -7.885,8.23 -7.967,8.013 -8.045,7.727 -8.118,7.377 L -9.687,0 l -3.381,0 2.531,11.892 3.383,0 -0.301,-1.489 c 0.623,0.993 1.468,1.489 2.532,1.489 l 3.55,0 c 1.264,0 2.146,-0.122 2.643,-0.374 C 1.764,11.271 2.01,10.772 2.01,10.019 2.01,9.597 1.947,9.1 1.817,8.534 L 0,0 Z" />
          </g>
          <g
             transform="translate(253.4629,168.8887)"
             id="g3438">
            <path
               inkscape:connector-curvature="0"
               id="path3440"
               style="fill:#ee2722;fill-opacity:1;fill-rule:nonzero;stroke:none"
               d="m 0,0 -3.385,0 0.58,2.721 3.383,0 L 0,0 Z m -2.805,-13.133 -3.386,0 2.53,11.92 3.387,0 -2.531,-11.92 z" />
          </g>
          <g
             transform="translate(263.3301,155.7559)"
             id="g3442">
            <path
               inkscape:connector-curvature="0"
               id="path3444"
               style="fill:#ee2722;fill-opacity:1;fill-rule:nonzero;stroke:none"
               d="m 0,0 -7.046,0 c -0.679,0 -1.239,0.033 -1.679,0.097 -0.441,0.069 -0.791,0.167 -1.046,0.304 -0.256,0.136 -0.436,0.325 -0.538,0.565 -0.099,0.24 -0.151,0.542 -0.151,0.905 0,0.422 0.064,0.918 0.194,1.486 l 1.1,5.179 c 0.166,0.714 0.354,1.29 0.562,1.733 0.213,0.439 0.497,0.779 0.856,1.016 0.358,0.24 0.793,0.398 1.307,0.483 0.513,0.082 1.154,0.122 1.927,0.122 l 7.044,0 -0.604,-2.862 -5.781,0 C -4.278,9.028 -4.611,9.01 -4.859,8.974 -5.107,8.936 -5.306,8.857 -5.451,8.742 -5.596,8.622 -5.713,8.45 -5.795,8.231 -5.877,8.012 -5.956,7.727 -6.027,7.376 L -6.634,4.517 c -0.095,-0.463 -0.14,-0.762 -0.14,-0.913 0,-0.309 0.108,-0.509 0.321,-0.6 0.208,-0.096 0.635,-0.141 1.279,-0.141 l 5.778,0 L 0,0 Z" />
          </g>
          <g
             transform="translate(279.6465,159.2676)"
             id="g3446">
            <path
               inkscape:connector-curvature="0"
               id="path3448"
               style="fill:#ee2722;fill-opacity:1;fill-rule:nonzero;stroke:none"
               d="M 0,0 C -0.166,-0.713 -0.35,-1.288 -0.549,-1.718 -0.752,-2.15 -1.022,-2.489 -1.363,-2.739 -1.7,-2.989 -2.131,-3.153 -2.654,-3.234 -3.178,-3.317 -3.833,-3.36 -4.625,-3.36 l -9.163,0 0.605,2.865 8.751,0 c 0.407,0 0.731,0.097 0.979,0.292 0.25,0.185 0.369,0.406 0.369,0.642 0,0.459 -0.328,0.687 -0.986,0.687 l -5.012,0 c -1.044,0 -1.84,0.213 -2.38,0.634 -0.542,0.425 -0.813,0.991 -0.813,1.708 0,0.09 0.006,0.178 0.015,0.261 0.01,0.082 0.023,0.171 0.041,0.259 l 0.248,1.188 c 0.162,0.715 0.352,1.295 0.564,1.744 0.21,0.451 0.485,0.796 0.825,1.033 0.341,0.237 0.771,0.401 1.295,0.482 0.523,0.086 1.168,0.124 1.939,0.124 l 9.164,0 -0.603,-2.86 -8.561,0 c -0.423,0 -0.765,-0.111 -1.033,-0.317 -0.265,-0.212 -0.4,-0.446 -0.4,-0.704 0,-0.457 0.36,-0.69 1.075,-0.69 l 5.286,0 c 1.761,0 2.641,-0.825 2.641,-2.473 0,-0.316 -0.028,-0.617 -0.082,-0.911 L 0,0 Z" />
          </g>
        </g>
      </g>
    </g>
  </g>
</svg>
